<svg xmlns="http://www.w3.org/2000/svg" viewBox="0 0 106.47 73.74"><defs><style>.cls-1{fill:#f00;}</style></defs><g id="Ebene_2" data-name="Ebene 2"><g id="Ebene_2-2" data-name="Ebene 2"><path class="cls-1" d="M104.68,14.21C103,6.49,100.54,2.44,93.79,1.4,90.38.87,71.78.21,53.26,0,34.71.21,16.08.87,12.66,1.4,5.9,2.44,3.45,6.49,1.75,14.21.92,18,0,27.41,0,36.81S.92,55.73,1.75,59.49C3.45,67.23,5.9,71.3,12.66,72.34c3.42.53,22.05,1.19,40.6,1.4,18.52-.21,37.12-.87,40.53-1.4,6.75-1,9.19-5.11,10.89-12.85a126.13,126.13,0,0,0,1.79-22.68A125.34,125.34,0,0,0,104.68,14.21Zm-62,38.9V21.45L70.3,37.28Z"/></g></g></svg>