<?xml version="1.0" encoding="utf-8"?>
<!-- Generator: Adobe Illustrator 26.5.0, SVG Export Plug-In . SVG Version: 6.00 Build 0)  -->
<svg version="1.1" id="Ebene_1" xmlns="http://www.w3.org/2000/svg" xmlns:xlink="http://www.w3.org/1999/xlink" x="0px" y="0px"
	 viewBox="0 0 48 48" style="enable-background:new 0 0 48 48;" xml:space="preserve">
<style type="text/css">
	.st0{fill:#B8C4C9;}
	.st1{fill:#E2E6E8;}
	.st2{fill:#869BA3;}
</style>
<path class="st0" d="M34.3,39.1H13.9C6.3,39.1,0.2,33,0.2,25.4v0c0-7.6,6.1-13.7,13.7-13.7h20.4c7.6,0,13.7,6.1,13.7,13.7v0
	C48,33,41.9,39.1,34.3,39.1z"/>
<path class="st1" d="M34.6,36.2h-21c-6,0-10.8-4.8-10.8-10.8v0c0-6,4.8-10.8,10.8-10.8h21c6,0,10.8,4.8,10.8,10.8v0
	C45.4,31.4,40.6,36.2,34.6,36.2z"/>
<path class="st2" d="M13.6,36.2L13.6,36.2c-6,0-10.8-4.8-10.8-10.8v0c0-6,4.8-10.8,10.8-10.8h0c6,0,10.8,4.8,10.8,10.8v0
	C24.4,31.4,19.5,36.2,13.6,36.2z"/>
</svg>
