<svg xmlns="http://www.w3.org/2000/svg" viewBox="0 0 133.79 111.29"><defs><style>.cls-1{fill:#1da1f2;}</style></defs><g id="Ebene_2" data-name="Ebene 2"><g id="Ebene_3" data-name="Ebene 3"><path class="cls-1" d="M133.79,13.83s-2.73,1.36-16,3.74c6.47-1,9.87-7.15,12.59-15.32-3.76,3.48-9.28,6.7-19.23,5.9C102.25-.63,88.66-3.57,76.44,5.66c-11.76,8.89-11.88,20.62-9.72,29.2C55.65,34.31,24.8,30.51,8.51,5.66,1.36,24,7.15,34,17.36,42.12c-7.15,2-10.55-.72-13.62-2.08,3.75,13.62,8.52,21.45,22.47,26.55-3.74,1.37-10.55,1.71-12.93,0C20.18,80.1,28,85.36,43.59,86.67,33,94.43,18.85,100.07,0,99.62c0,0,25.53,12.93,44.94,11.57s41.36-7.15,59-30c13.69-17.73,18.09-38.61,16.56-53C126.66,23.2,133.79,13.83,133.79,13.83Z"/></g></g></svg>